<svg xmlns="http://www.w3.org/2000/svg" xmlns:xlink="http://www.w3.org/1999/xlink" version="1.1" width="1000" height="1000" viewBox="0 0 1000 1000" xml:space="preserve">
<desc>Created with Fabric.js 3.5.0</desc>
<defs>
</defs>
<rect x="0" y="0" width="100%" height="100%" fill="#222222"/>
<g transform="matrix(0.5882 0 0 0.5882 500.0288 500.0169)" id="263732">
<path style="stroke: none; stroke-width: 1; stroke-dasharray: none; stroke-linecap: butt; stroke-dashoffset: 0; stroke-linejoin: miter; stroke-miterlimit: 4; is-custom-font: none; font-file-url: none; fill: rgb(255,255,255); fill-rule: nonzero; opacity: 1;" vector-effect="non-scaling-stroke" transform=" translate(-850.1, -500)" d="M 500 376.2 c -68.3 0 -123.8 55.4 -123.7 123.8 S 431.7 623.8 500 623.8 S 623.8 568.3 623.8 500 S 568.4 376.3 500 376.2 L 500 376.2 z M 500 583 c -45.8 0 -83 -37.2 -83 -83 s 37.2 -83 83 -83 s 83 37.2 83 83 l 0 0 C 583 545.8 545.8 583 500 583 z M 1200.1 0 C 1069.2 -0.2 943.4 51.2 850 143 C 756.7 51.2 630.9 -0.2 500 0 C 223.9 0 0 223.9 0 500 s 223.9 500 500 500 c 130.9 0.2 256.7 -51.2 350.1 -143 c 93.4 91.8 219.1 143.2 350.1 143 c 276.1 0 500 -223.9 500 -500 S 1476.3 0 1200.1 0 L 1200.1 0 z M 1200.1 961 c -125.8 0 -239.9 -50.7 -323.1 -132.6 c 36.2 -41.5 65.2 -88.8 86 -139.8 h -42.6 c -18.1 40.1 -41.7 77.4 -70.3 110.8 c -28.6 -33.4 -52.3 -70.7 -70.4 -110.8 h -42.6 c 20.8 51 49.8 98.2 86 139.8 C 739.8 910.3 625.7 961 500 961 C 245.8 961 39 754.2 39 500 S 245.8 39 500 39 c 125.8 0 239.9 50.7 323.1 132.6 c -36.2 41.5 -65.2 88.8 -86 139.8 h 42.6 c 18.1 -40.1 41.8 -77.4 70.4 -110.8 c 28.6 33.4 52.3 70.7 70.4 110.8 h 42.6 c -20.8 -51 -49.8 -98.2 -86 -139.8 C 960.3 89.7 1074.4 39 1200.2 39 c 254.2 0 461 206.8 461 461 S 1454.3 961 1200.1 961 L 1200.1 961 z M 1498.7 523.1 c 25.7 -11.4 43.6 -36 44.3 -64.4 c 0.7 -30 -16.3 -55.9 -43.2 -68.6 c -16.8 -8 -34.8 -9.5 -53.1 -9.5 h -80.5 v 238.7 h 41.9 v -85.8 h 50.8 l 51.2 85.8 h 49.2 L 1498.7 523.1 z M 1500.8 456 c 0 11.9 -4.9 23.2 -14.4 30.6 c -9.3 7.2 -20.9 10 -32.4 10.3 c -10.8 0.3 -41.4 0 -45.9 0 v -79.4 h 33 c 15 0 31.3 -0.6 44.3 8.1 C 1495.7 432.5 1500.8 443.9 1500.8 456 z M 486.9 326.6 c 0 12.7 -10.3 23 -23 23 s -23 -10.3 -23 -23 s 10.3 -23 23 -23 S 486.9 313.9 486.9 326.6 L 486.9 326.6 z M 559.1 326.6 c 0 12.7 -10.3 23 -23 23 s -23 -10.3 -23 -23 s 10.3 -23 23 -23 S 559.1 313.8 559.1 326.6 L 559.1 326.6 L 559.1 326.6 z M 805.1 523.1 c 25.7 -11.4 43.6 -36 44.3 -64.4 c 0.7 -30 -16.3 -55.9 -43.2 -68.6 c -16.8 -8 -34.8 -9.5 -53.1 -9.5 h -80.5 v 238.7 h 41.9 v -85.8 h 50.8 l 51.2 85.8 h 49.2 L 805.1 523.1 z M 807.1 456 c 0 11.9 -4.9 23.2 -14.4 30.6 c -9.3 7.2 -20.9 10 -32.4 10.3 c -10.8 0.3 -41.4 0 -45.9 0 v -79.4 h 33 c 15 0 31.3 -0.6 44.3 8.1 C 802.1 432.5 807.2 443.9 807.1 456 L 807.1 456 z M 1086.8 515.2 c -4.9 -7.9 -11.7 -14.5 -19.7 -19.3 c 7.3 -4.5 13.5 -10.7 17.9 -18 c 5.3 -8.8 7.9 -19.1 7.9 -30.4 c 0 -20.8 -7.3 -37.4 -21.7 -49.2 c -14.2 -11.7 -33.7 -17.6 -57.8 -17.6 h -98.3 v 238.8 h 99.6 c 24.4 0 44.2 -6 58.8 -17.9 c 14.8 -12 22.4 -29.6 22.4 -52.1 C 1095.8 536.1 1092.8 524.6 1086.8 515.2 L 1086.8 515.2 z M 1044.3 572 c -6.8 5.9 -16.8 8.9 -29.7 8.9 h -58.9 v -64 h 56.4 c 15.2 0 26.2 2.9 32.7 8.5 c 6.5 5.7 9.6 13.2 9.6 23.3 C 1054.4 558.6 1051.1 566.2 1044.3 572 L 1044.3 572 z M 1042.7 469.1 c -5.9 5.7 -15.4 8.6 -28.4 8.6 h -58.6 v -59 h 57.6 c 12.9 0 22.7 2.6 29 7.7 s 9.2 11.8 9.2 21 C 1051.6 456.3 1048.7 463.4 1042.7 469.1 L 1042.7 469.1 z M 1193.3 420.4 v 59.4 h 97.9 v 39.8 h -97.9 v 59.7 h 117.9 v 40.1 h -158.6 V 380.6 h 158.6 v 39.8 H 1193.3 z M 250.4 500 l 119.4 119.3 h -53.9 L 209.5 513.8 v 105.6 h -41.9 V 380.6 h 41.9 v 106.2 l 106.4 -106.2 h 53.9 L 250.4 500 z" stroke-linecap="round"/>
</g>
</svg>